<?xml version="1.0" encoding="utf-8"?>
<!-- Generator: Adobe Illustrator 24.3.0, SVG Export Plug-In . SVG Version: 6.00 Build 0)  -->
<svg version="1.1" id="Layer_1" xmlns="http://www.w3.org/2000/svg" xmlns:xlink="http://www.w3.org/1999/xlink" x="0px" y="0px"
	 viewBox="0 0 240 234" style="enable-background:new 0 0 240 234;" xml:space="preserve">
<style type="text/css">
	.st0{fill:#EDEDED;}
	.st1{fill:#0ACF83;}
	.st2{fill:#A259FF;}
	.st3{fill:#F24E1E;}
	.st4{fill:#FF7262;}
	.st5{fill:#1ABCFE;}
</style>
<g id="Layer_2_1_">
	<g id="Surfaces">
		<g id="UI_UX_Surface">
			<g id="Outline_no_shadow">
				<path class="st0" d="M42.5,0h155C221,0,240,19,240,42.5v149c0,23.5-19,42.5-42.5,42.5h-155C19,234,0,215,0,191.5v-149
					C0,19,19,0,42.5,0z"/>
			</g>
		</g>
	</g>
</g>
<g>
	<path id="path0_fill" class="st1" d="M91.2,203.5c15.9,0,28.8-12.9,28.8-28.8v-28.8H91.2c-15.9,0-28.8,12.9-28.8,28.8
		S75.2,203.5,91.2,203.5z"/>
	<path id="path1_fill" class="st2" d="M62.3,117c0-15.9,12.9-28.8,28.8-28.8H120v57.7H91.2C75.2,145.8,62.3,132.9,62.3,117z"/>
	<path id="path1_fill_1_" class="st3" d="M62.3,59.3c0-15.9,12.9-28.8,28.8-28.8H120v57.7H91.2C75.2,88.2,62.3,75.2,62.3,59.3z"/>
	<path id="path2_fill" class="st4" d="M120,30.5h28.8c15.9,0,28.8,12.9,28.8,28.8s-12.9,28.8-28.8,28.8H120V30.5z"/>
	<path id="path3_fill" class="st5" d="M177.7,117c0,15.9-12.9,28.8-28.8,28.8S120,132.9,120,117s12.9-28.8,28.8-28.8
		S177.7,101.1,177.7,117z"/>
</g>
</svg>
